<svg xmlns="http://www.w3.org/2000/svg" viewBox="0 0 880 200" width="100%" font-family="ui-sans-serif,system-ui,Arial">
  <defs>
    <marker id="ah" markerWidth="9" markerHeight="9" refX="7" refY="3" orient="auto" markerUnits="strokeWidth">
      <path d="M0,0 L7,3 L0,6 Z" fill="#6B7280"/>
    </marker>
  </defs>
  <rect x="0" y="0" width="880" height="200" rx="14" fill="#FFFFFF" stroke="#E5E7EB"/>
  <text x="24" y="34" font-size="15" font-weight="700" fill="#111827">GateForge-Loom-DMoE · request pipeline</text>

  <line x1="70" y1="120" x2="810" y2="120" stroke="#E5E7EB" stroke-width="6" stroke-linecap="round"/>

  <g font-size="12" font-weight="700" text-anchor="middle">
    <g>
      <circle cx="80"  cy="120" r="22" fill="#FEE7DC" stroke="#D97757" stroke-width="2"/>
      <text x="80"  y="124" fill="#7C2D12">🧠</text><text x="80"  y="165" fill="#374151">Brain</text>
    </g>
    <g>
      <circle cx="226" cy="120" r="22" fill="#EDE9FE" stroke="#8B5CF6" stroke-width="2"/>
      <text x="226" y="124" fill="#5B21B6">📚</text><text x="226" y="165" fill="#374151">Memory</text>
    </g>
    <g>
      <circle cx="372" cy="120" r="22" fill="#FCE7F3" stroke="#DB2777" stroke-width="2"/>
      <text x="372" y="124" fill="#9D174D">🧬</text><text x="372" y="165" fill="#374151">Knowledge</text>
    </g>
    <g>
      <circle cx="518" cy="120" r="22" fill="#DBEAFE" stroke="#3B82F6" stroke-width="2"/>
      <text x="518" y="124" fill="#1E3A8A">✋</text><text x="518" y="165" fill="#374151">Hands</text>
    </g>
    <g>
      <circle cx="664" cy="120" r="22" fill="#FEE7DC" stroke="#D97757" stroke-width="2"/>
      <text x="664" y="124" fill="#7C2D12">🧠</text><text x="664" y="165" fill="#374151">Merge</text>
    </g>
    <g>
      <circle cx="810" cy="120" r="22" fill="#EDE9FE" stroke="#8B5CF6" stroke-width="2"/>
      <text x="810" y="124" fill="#5B21B6">📚</text><text x="810" y="165" fill="#374151">Persist</text>
    </g>
  </g>

  <g stroke="#9CA3AF" stroke-width="2" marker-end="url(#ah)">
    <line x1="104" y1="120" x2="200" y2="120"/>
    <line x1="250" y1="120" x2="346" y2="120"/>
    <line x1="396" y1="120" x2="492" y2="120"/>
    <line x1="542" y1="120" x2="638" y2="120"/>
    <line x1="688" y1="120" x2="784" y2="120"/>
  </g>

  <circle r="9" fill="#DC2626">
    <animateMotion dur="6s" repeatCount="indefinite" rotate="auto"
      path="M80,120 L226,120 L372,120 L518,120 L664,120 L810,120"/>
    <animate attributeName="opacity" values="0;1;1;1;1;1;0" dur="6s" repeatCount="indefinite"/>
  </circle>
  <text x="24" y="190" font-size="11" fill="#6B7280">Looping animation — the red token is one job moving through the loom on the GB10 host.</text>
</svg>
